<svg xmlns="http://www.w3.org/2000/svg" xmlns:xlink="http://www.w3.org/1999/xlink" width="500" zoomAndPan="magnify" viewBox="0 0 375 374.999991" height="500" preserveAspectRatio="xMidYMid meet" version="1.0"><defs><clipPath id="3139886af9"><path d="M 32.914062 166.835938 L 80 166.835938 L 80 208.085938 L 32.914062 208.085938 Z M 32.914062 166.835938 " clip-rule="nonzero"/></clipPath><clipPath id="216b918614"><path d="M 65.363281 197.738281 L 51.136719 172.089844 C 50.699219 171.304688 50.164062 170.589844 49.535156 169.945312 C 48.90625 169.300781 48.207031 168.746094 47.429688 168.285156 C 46.65625 167.824219 45.835938 167.472656 44.96875 167.226562 C 44.101562 166.980469 43.214844 166.851562 42.316406 166.839844 L 33.652344 166.839844 C 33.367188 166.820312 33.152344 166.9375 33.011719 167.1875 C 32.871094 167.4375 32.878906 167.683594 33.042969 167.921875 L 52.363281 202.832031 C 52.789062 203.632812 53.3125 204.359375 53.9375 205.011719 C 54.5625 205.667969 55.261719 206.226562 56.039062 206.6875 C 56.816406 207.152344 57.640625 207.503906 58.511719 207.738281 C 59.386719 207.976562 60.273438 208.09375 61.179688 208.085938 L 71.078125 208.085938 L 69.6875 205.613281 L 71.078125 208.085938 L 78.199219 208.085938 C 78.484375 208.101562 78.75 208.042969 79 207.910156 C 79.25 207.777344 79.445312 207.589844 79.59375 207.34375 C 79.738281 207.101562 79.808594 206.839844 79.808594 206.558594 C 79.808594 206.273438 79.738281 206.011719 79.589844 205.769531 C 78.15625 205.777344 76.746094 205.605469 75.359375 205.242188 C 73.972656 204.882812 72.652344 204.351562 71.40625 203.648438 C 70.15625 202.941406 69.019531 202.089844 67.996094 201.085938 C 66.972656 200.085938 66.09375 198.96875 65.363281 197.738281 Z M 65.363281 197.738281 " clip-rule="nonzero"/></clipPath><linearGradient x1="1.063827" gradientTransform="matrix(46.88898, 0, 0, 41.25154, 32.921211, 166.837206)" y1="0.0969361" x2="-0.0931387" gradientUnits="userSpaceOnUse" y2="0.858749" id="190353271e"><stop stop-opacity="1" stop-color="rgb(94.625854%, 41.914368%, 15.05127%)" offset="0"/><stop stop-opacity="1" stop-color="rgb(94.610596%, 41.81366%, 15.071106%)" offset="0.0078125"/><stop stop-opacity="1" stop-color="rgb(94.581604%, 41.615295%, 15.112305%)" offset="0.015625"/><stop stop-opacity="1" stop-color="rgb(94.552612%, 41.415405%, 15.153503%)" offset="0.0234375"/><stop stop-opacity="1" stop-color="rgb(94.523621%, 41.217041%, 15.194702%)" offset="0.03125"/><stop stop-opacity="1" stop-color="rgb(94.494629%, 41.017151%, 15.235901%)" offset="0.0390625"/><stop stop-opacity="1" stop-color="rgb(94.465637%, 40.818787%, 15.2771%)" offset="0.046875"/><stop stop-opacity="1" stop-color="rgb(94.436646%, 40.620422%, 15.318298%)" offset="0.0546875"/><stop stop-opacity="1" stop-color="rgb(94.40918%, 40.420532%, 15.359497%)" offset="0.0625"/><stop stop-opacity="1" stop-color="rgb(94.380188%, 40.222168%, 15.402222%)" offset="0.0703125"/><stop stop-opacity="1" stop-color="rgb(94.351196%, 40.022278%, 15.44342%)" offset="0.078125"/><stop stop-opacity="1" stop-color="rgb(94.322205%, 39.823914%, 15.484619%)" offset="0.0859375"/><stop stop-opacity="1" stop-color="rgb(94.293213%, 39.624023%, 15.525818%)" offset="0.09375"/><stop stop-opacity="1" stop-color="rgb(94.264221%, 39.425659%, 15.567017%)" offset="0.101563"/><stop stop-opacity="1" stop-color="rgb(94.235229%, 39.225769%, 15.608215%)" offset="0.109375"/><stop stop-opacity="1" stop-color="rgb(94.206238%, 39.027405%, 15.649414%)" offset="0.117188"/><stop stop-opacity="1" stop-color="rgb(94.177246%, 38.827515%, 15.690613%)" offset="0.125"/><stop stop-opacity="1" stop-color="rgb(94.148254%, 38.62915%, 15.731812%)" offset="0.132813"/><stop stop-opacity="1" stop-color="rgb(94.119263%, 38.42926%, 15.77301%)" offset="0.140625"/><stop stop-opacity="1" stop-color="rgb(94.091797%, 38.230896%, 15.814209%)" offset="0.148438"/><stop stop-opacity="1" stop-color="rgb(94.062805%, 38.031006%, 15.855408%)" offset="0.15625"/><stop stop-opacity="1" stop-color="rgb(94.033813%, 37.832642%, 15.896606%)" offset="0.164063"/><stop stop-opacity="1" stop-color="rgb(94.004822%, 37.634277%, 15.937805%)" offset="0.171875"/><stop stop-opacity="1" stop-color="rgb(93.97583%, 37.434387%, 15.979004%)" offset="0.179688"/><stop stop-opacity="1" stop-color="rgb(93.946838%, 37.236023%, 16.020203%)" offset="0.1875"/><stop stop-opacity="1" stop-color="rgb(93.917847%, 37.036133%, 16.061401%)" offset="0.195313"/><stop stop-opacity="1" stop-color="rgb(93.888855%, 36.837769%, 16.1026%)" offset="0.203125"/><stop stop-opacity="1" stop-color="rgb(93.859863%, 36.637878%, 16.143799%)" offset="0.210938"/><stop stop-opacity="1" stop-color="rgb(93.830872%, 36.439514%, 16.186523%)" offset="0.21875"/><stop stop-opacity="1" stop-color="rgb(93.80188%, 36.239624%, 16.227722%)" offset="0.226563"/><stop stop-opacity="1" stop-color="rgb(93.772888%, 36.04126%, 16.268921%)" offset="0.234375"/><stop stop-opacity="1" stop-color="rgb(93.745422%, 35.84137%, 16.31012%)" offset="0.242188"/><stop stop-opacity="1" stop-color="rgb(93.716431%, 35.643005%, 16.351318%)" offset="0.25"/><stop stop-opacity="1" stop-color="rgb(93.687439%, 35.443115%, 16.392517%)" offset="0.257812"/><stop stop-opacity="1" stop-color="rgb(93.658447%, 35.244751%, 16.433716%)" offset="0.265625"/><stop stop-opacity="1" stop-color="rgb(93.629456%, 35.044861%, 16.474915%)" offset="0.273437"/><stop stop-opacity="1" stop-color="rgb(93.600464%, 34.846497%, 16.516113%)" offset="0.28125"/><stop stop-opacity="1" stop-color="rgb(93.571472%, 34.648132%, 16.557312%)" offset="0.289062"/><stop stop-opacity="1" stop-color="rgb(93.54248%, 34.448242%, 16.598511%)" offset="0.296875"/><stop stop-opacity="1" stop-color="rgb(93.513489%, 34.249878%, 16.639709%)" offset="0.304687"/><stop stop-opacity="1" stop-color="rgb(93.484497%, 34.049988%, 16.680908%)" offset="0.3125"/><stop stop-opacity="1" stop-color="rgb(93.455505%, 33.851624%, 16.722107%)" offset="0.320312"/><stop stop-opacity="1" stop-color="rgb(93.42804%, 33.651733%, 16.763306%)" offset="0.328125"/><stop stop-opacity="1" stop-color="rgb(93.399048%, 33.453369%, 16.804504%)" offset="0.335937"/><stop stop-opacity="1" stop-color="rgb(93.370056%, 33.253479%, 16.845703%)" offset="0.34375"/><stop stop-opacity="1" stop-color="rgb(93.341064%, 33.055115%, 16.886902%)" offset="0.351562"/><stop stop-opacity="1" stop-color="rgb(93.312073%, 32.855225%, 16.928101%)" offset="0.359375"/><stop stop-opacity="1" stop-color="rgb(93.283081%, 32.65686%, 16.969299%)" offset="0.367187"/><stop stop-opacity="1" stop-color="rgb(93.254089%, 32.45697%, 17.012024%)" offset="0.375"/><stop stop-opacity="1" stop-color="rgb(93.225098%, 32.258606%, 17.053223%)" offset="0.382812"/><stop stop-opacity="1" stop-color="rgb(93.196106%, 32.058716%, 17.094421%)" offset="0.390625"/><stop stop-opacity="1" stop-color="rgb(93.167114%, 31.860352%, 17.13562%)" offset="0.396984"/><stop stop-opacity="1" stop-color="rgb(93.153381%, 31.761169%, 17.156982%)" offset="0.398437"/><stop stop-opacity="1" stop-color="rgb(93.138123%, 31.661987%, 17.176819%)" offset="0.40625"/><stop stop-opacity="1" stop-color="rgb(93.110657%, 31.462097%, 17.218018%)" offset="0.414062"/><stop stop-opacity="1" stop-color="rgb(93.081665%, 31.263733%, 17.259216%)" offset="0.421875"/><stop stop-opacity="1" stop-color="rgb(93.052673%, 31.063843%, 17.300415%)" offset="0.429687"/><stop stop-opacity="1" stop-color="rgb(93.023682%, 30.865479%, 17.341614%)" offset="0.4375"/><stop stop-opacity="1" stop-color="rgb(92.99469%, 30.665588%, 17.382812%)" offset="0.445312"/><stop stop-opacity="1" stop-color="rgb(92.965698%, 30.467224%, 17.424011%)" offset="0.453125"/><stop stop-opacity="1" stop-color="rgb(92.936707%, 30.267334%, 17.46521%)" offset="0.460938"/><stop stop-opacity="1" stop-color="rgb(92.907715%, 30.06897%, 17.506409%)" offset="0.46875"/><stop stop-opacity="1" stop-color="rgb(92.878723%, 29.86908%, 17.547607%)" offset="0.476562"/><stop stop-opacity="1" stop-color="rgb(92.849731%, 29.670715%, 17.588806%)" offset="0.484375"/><stop stop-opacity="1" stop-color="rgb(92.82074%, 29.470825%, 17.630005%)" offset="0.492188"/><stop stop-opacity="1" stop-color="rgb(92.791748%, 29.272461%, 17.671204%)" offset="0.5"/><stop stop-opacity="1" stop-color="rgb(92.764282%, 29.074097%, 17.712402%)" offset="0.507812"/><stop stop-opacity="1" stop-color="rgb(92.735291%, 28.874207%, 17.753601%)" offset="0.515625"/><stop stop-opacity="1" stop-color="rgb(92.706299%, 28.675842%, 17.7948%)" offset="0.523438"/><stop stop-opacity="1" stop-color="rgb(92.677307%, 28.475952%, 17.837524%)" offset="0.53125"/><stop stop-opacity="1" stop-color="rgb(92.648315%, 28.277588%, 17.878723%)" offset="0.539062"/><stop stop-opacity="1" stop-color="rgb(92.619324%, 28.077698%, 17.919922%)" offset="0.546875"/><stop stop-opacity="1" stop-color="rgb(92.590332%, 27.879333%, 17.961121%)" offset="0.554688"/><stop stop-opacity="1" stop-color="rgb(92.56134%, 27.679443%, 18.002319%)" offset="0.5625"/><stop stop-opacity="1" stop-color="rgb(92.532349%, 27.481079%, 18.043518%)" offset="0.570312"/><stop stop-opacity="1" stop-color="rgb(92.503357%, 27.281189%, 18.084717%)" offset="0.578125"/><stop stop-opacity="1" stop-color="rgb(92.474365%, 27.082825%, 18.125916%)" offset="0.585938"/><stop stop-opacity="1" stop-color="rgb(92.446899%, 26.882935%, 18.167114%)" offset="0.59375"/><stop stop-opacity="1" stop-color="rgb(92.417908%, 26.68457%, 18.208313%)" offset="0.601562"/><stop stop-opacity="1" stop-color="rgb(92.388916%, 26.48468%, 18.249512%)" offset="0.603016"/><stop stop-opacity="1" stop-color="rgb(92.375183%, 26.385498%, 18.270874%)" offset="0.609375"/><stop stop-opacity="1" stop-color="rgb(92.359924%, 26.286316%, 18.29071%)" offset="0.617188"/><stop stop-opacity="1" stop-color="rgb(92.330933%, 26.087952%, 18.331909%)" offset="0.625"/><stop stop-opacity="1" stop-color="rgb(92.301941%, 25.888062%, 18.373108%)" offset="0.632812"/><stop stop-opacity="1" stop-color="rgb(92.272949%, 25.689697%, 18.414307%)" offset="0.640625"/><stop stop-opacity="1" stop-color="rgb(92.243958%, 25.489807%, 18.455505%)" offset="0.648438"/><stop stop-opacity="1" stop-color="rgb(92.214966%, 25.291443%, 18.496704%)" offset="0.65625"/><stop stop-opacity="1" stop-color="rgb(92.185974%, 25.091553%, 18.537903%)" offset="0.664062"/><stop stop-opacity="1" stop-color="rgb(92.156982%, 24.893188%, 18.579102%)" offset="0.671875"/><stop stop-opacity="1" stop-color="rgb(92.129517%, 24.693298%, 18.6203%)" offset="0.679688"/><stop stop-opacity="1" stop-color="rgb(92.100525%, 24.494934%, 18.663025%)" offset="0.6875"/><stop stop-opacity="1" stop-color="rgb(92.071533%, 24.295044%, 18.704224%)" offset="0.695312"/><stop stop-opacity="1" stop-color="rgb(92.042542%, 24.09668%, 18.745422%)" offset="0.703125"/><stop stop-opacity="1" stop-color="rgb(92.01355%, 23.89679%, 18.786621%)" offset="0.710938"/><stop stop-opacity="1" stop-color="rgb(91.984558%, 23.698425%, 18.82782%)" offset="0.71875"/><stop stop-opacity="1" stop-color="rgb(91.955566%, 23.498535%, 18.869019%)" offset="0.726562"/><stop stop-opacity="1" stop-color="rgb(91.926575%, 23.300171%, 18.910217%)" offset="0.734375"/><stop stop-opacity="1" stop-color="rgb(91.897583%, 23.101807%, 18.951416%)" offset="0.742188"/><stop stop-opacity="1" stop-color="rgb(91.868591%, 22.901917%, 18.992615%)" offset="0.75"/><stop stop-opacity="1" stop-color="rgb(91.8396%, 22.703552%, 19.033813%)" offset="0.757812"/><stop stop-opacity="1" stop-color="rgb(91.812134%, 22.503662%, 19.075012%)" offset="0.765625"/><stop stop-opacity="1" stop-color="rgb(91.783142%, 22.305298%, 19.116211%)" offset="0.773438"/><stop stop-opacity="1" stop-color="rgb(91.75415%, 22.105408%, 19.15741%)" offset="0.78125"/><stop stop-opacity="1" stop-color="rgb(91.725159%, 21.907043%, 19.198608%)" offset="0.789062"/><stop stop-opacity="1" stop-color="rgb(91.696167%, 21.707153%, 19.239807%)" offset="0.796875"/><stop stop-opacity="1" stop-color="rgb(91.667175%, 21.508789%, 19.281006%)" offset="0.804688"/><stop stop-opacity="1" stop-color="rgb(91.638184%, 21.308899%, 19.322205%)" offset="0.8125"/><stop stop-opacity="1" stop-color="rgb(91.609192%, 21.110535%, 19.363403%)" offset="0.820312"/><stop stop-opacity="1" stop-color="rgb(91.5802%, 20.910645%, 19.404602%)" offset="0.828125"/><stop stop-opacity="1" stop-color="rgb(91.551208%, 20.71228%, 19.447327%)" offset="0.835938"/><stop stop-opacity="1" stop-color="rgb(91.522217%, 20.513916%, 19.488525%)" offset="0.84375"/><stop stop-opacity="1" stop-color="rgb(91.493225%, 20.314026%, 19.529724%)" offset="0.851562"/><stop stop-opacity="1" stop-color="rgb(91.465759%, 20.115662%, 19.570923%)" offset="0.859375"/><stop stop-opacity="1" stop-color="rgb(91.436768%, 19.915771%, 19.612122%)" offset="0.867188"/><stop stop-opacity="1" stop-color="rgb(91.407776%, 19.717407%, 19.65332%)" offset="0.875"/><stop stop-opacity="1" stop-color="rgb(91.378784%, 19.517517%, 19.694519%)" offset="0.882813"/><stop stop-opacity="1" stop-color="rgb(91.349792%, 19.319153%, 19.735718%)" offset="0.890625"/><stop stop-opacity="1" stop-color="rgb(91.320801%, 19.119263%, 19.776917%)" offset="0.898438"/><stop stop-opacity="1" stop-color="rgb(91.291809%, 18.920898%, 19.818115%)" offset="0.90625"/><stop stop-opacity="1" stop-color="rgb(91.262817%, 18.721008%, 19.859314%)" offset="0.914063"/><stop stop-opacity="1" stop-color="rgb(91.233826%, 18.522644%, 19.900513%)" offset="0.921875"/><stop stop-opacity="1" stop-color="rgb(91.204834%, 18.322754%, 19.941711%)" offset="0.929688"/><stop stop-opacity="1" stop-color="rgb(91.175842%, 18.12439%, 19.98291%)" offset="0.9375"/><stop stop-opacity="1" stop-color="rgb(91.148376%, 17.9245%, 20.024109%)" offset="0.945313"/><stop stop-opacity="1" stop-color="rgb(91.119385%, 17.726135%, 20.065308%)" offset="0.953125"/><stop stop-opacity="1" stop-color="rgb(91.090393%, 17.527771%, 20.106506%)" offset="0.960938"/><stop stop-opacity="1" stop-color="rgb(91.061401%, 17.327881%, 20.147705%)" offset="0.96875"/><stop stop-opacity="1" stop-color="rgb(91.03241%, 17.129517%, 20.188904%)" offset="0.976563"/><stop stop-opacity="1" stop-color="rgb(91.003418%, 16.929626%, 20.230103%)" offset="0.984375"/><stop stop-opacity="1" stop-color="rgb(90.974426%, 16.731262%, 20.272827%)" offset="0.992187"/><stop stop-opacity="1" stop-color="rgb(90.945435%, 16.531372%, 20.314026%)" offset="1"/></linearGradient><clipPath id="ceca98e0b5"><path d="M 62 166.835938 L 110 166.835938 L 110 208.085938 L 62 208.085938 Z M 62 166.835938 " clip-rule="nonzero"/></clipPath><clipPath id="90aff092b4"><path d="M 95.058594 197.738281 L 80.828125 172.089844 C 80.398438 171.300781 79.867188 170.578125 79.242188 169.929688 C 78.617188 169.277344 77.914062 168.722656 77.140625 168.261719 C 76.363281 167.800781 75.542969 167.449219 74.671875 167.207031 C 73.800781 166.964844 72.914062 166.84375 72.011719 166.839844 L 63.351562 166.839844 C 63.0625 166.820312 62.851562 166.9375 62.707031 167.1875 C 62.566406 167.4375 62.578125 167.683594 62.738281 167.921875 L 82.066406 202.832031 C 82.492188 203.632812 83.015625 204.359375 83.636719 205.011719 C 84.261719 205.667969 84.960938 206.226562 85.738281 206.6875 C 86.515625 207.152344 87.34375 207.503906 88.214844 207.738281 C 89.085938 207.976562 89.976562 208.09375 90.882812 208.085938 L 100.78125 208.085938 L 99.542969 205.613281 L 100.933594 208.085938 L 108.050781 208.085938 C 108.332031 208.101562 108.597656 208.042969 108.847656 207.910156 C 109.097656 207.777344 109.296875 207.589844 109.441406 207.34375 C 109.585938 207.101562 109.660156 206.839844 109.660156 206.558594 C 109.660156 206.273438 109.585938 206.011719 109.441406 205.769531 C 108 205.761719 106.582031 205.578125 105.1875 205.210938 C 103.792969 204.847656 102.46875 204.3125 101.210938 203.609375 C 99.953125 202.90625 98.804688 202.058594 97.761719 201.0625 C 96.71875 200.070312 95.820312 198.960938 95.058594 197.738281 Z M 95.058594 197.738281 " clip-rule="nonzero"/></clipPath><linearGradient x1="1.06301" gradientTransform="matrix(47.042228, 0, 0, 41.25154, 62.618159, 166.837206)" y1="0.0953277" x2="-0.0936841" gradientUnits="userSpaceOnUse" y2="0.859898" id="0c2aa2d85f"><stop stop-opacity="1" stop-color="rgb(96.147156%, 52.406311%, 12.875366%)" offset="0"/><stop stop-opacity="1" stop-color="rgb(96.131897%, 52.307129%, 12.895203%)" offset="0.0078125"/><stop stop-opacity="1" stop-color="rgb(96.102905%, 52.107239%, 12.937927%)" offset="0.015625"/><stop stop-opacity="1" stop-color="rgb(96.073914%, 51.907349%, 12.979126%)" offset="0.0234375"/><stop stop-opacity="1" stop-color="rgb(96.044922%, 51.707458%, 13.020325%)" offset="0.03125"/><stop stop-opacity="1" stop-color="rgb(96.01593%, 51.507568%, 13.061523%)" offset="0.0390625"/><stop stop-opacity="1" stop-color="rgb(95.986938%, 51.307678%, 13.102722%)" offset="0.046875"/><stop stop-opacity="1" stop-color="rgb(95.957947%, 51.107788%, 13.143921%)" offset="0.0546875"/><stop stop-opacity="1" stop-color="rgb(95.928955%, 50.909424%, 13.18512%)" offset="0.0625"/><stop stop-opacity="1" stop-color="rgb(95.899963%, 50.709534%, 13.226318%)" offset="0.0703125"/><stop stop-opacity="1" stop-color="rgb(95.870972%, 50.509644%, 13.269043%)" offset="0.078125"/><stop stop-opacity="1" stop-color="rgb(95.84198%, 50.309753%, 13.310242%)" offset="0.0859375"/><stop stop-opacity="1" stop-color="rgb(95.812988%, 50.109863%, 13.35144%)" offset="0.09375"/><stop stop-opacity="1" stop-color="rgb(95.783997%, 49.909973%, 13.392639%)" offset="0.101562"/><stop stop-opacity="1" stop-color="rgb(95.755005%, 49.710083%, 13.433838%)" offset="0.109375"/><stop stop-opacity="1" stop-color="rgb(95.726013%, 49.511719%, 13.475037%)" offset="0.117187"/><stop stop-opacity="1" stop-color="rgb(95.697021%, 49.311829%, 13.516235%)" offset="0.125"/><stop stop-opacity="1" stop-color="rgb(95.66803%, 49.111938%, 13.55896%)" offset="0.132812"/><stop stop-opacity="1" stop-color="rgb(95.639038%, 48.912048%, 13.600159%)" offset="0.140625"/><stop stop-opacity="1" stop-color="rgb(95.610046%, 48.712158%, 13.641357%)" offset="0.148437"/><stop stop-opacity="1" stop-color="rgb(95.581055%, 48.512268%, 13.682556%)" offset="0.15625"/><stop stop-opacity="1" stop-color="rgb(95.552063%, 48.312378%, 13.723755%)" offset="0.164062"/><stop stop-opacity="1" stop-color="rgb(95.523071%, 48.114014%, 13.764954%)" offset="0.171875"/><stop stop-opacity="1" stop-color="rgb(95.49408%, 47.914124%, 13.806152%)" offset="0.179687"/><stop stop-opacity="1" stop-color="rgb(95.465088%, 47.714233%, 13.847351%)" offset="0.1875"/><stop stop-opacity="1" stop-color="rgb(95.436096%, 47.514343%, 13.890076%)" offset="0.195313"/><stop stop-opacity="1" stop-color="rgb(95.407104%, 47.314453%, 13.931274%)" offset="0.203125"/><stop stop-opacity="1" stop-color="rgb(95.378113%, 47.114563%, 13.972473%)" offset="0.210938"/><stop stop-opacity="1" stop-color="rgb(95.350647%, 46.914673%, 14.013672%)" offset="0.21875"/><stop stop-opacity="1" stop-color="rgb(95.321655%, 46.716309%, 14.054871%)" offset="0.226563"/><stop stop-opacity="1" stop-color="rgb(95.292664%, 46.516418%, 14.096069%)" offset="0.234375"/><stop stop-opacity="1" stop-color="rgb(95.263672%, 46.316528%, 14.137268%)" offset="0.242188"/><stop stop-opacity="1" stop-color="rgb(95.23468%, 46.116638%, 14.179993%)" offset="0.25"/><stop stop-opacity="1" stop-color="rgb(95.205688%, 45.916748%, 14.221191%)" offset="0.257812"/><stop stop-opacity="1" stop-color="rgb(95.176697%, 45.716858%, 14.26239%)" offset="0.265625"/><stop stop-opacity="1" stop-color="rgb(95.147705%, 45.516968%, 14.303589%)" offset="0.273438"/><stop stop-opacity="1" stop-color="rgb(95.118713%, 45.318604%, 14.344788%)" offset="0.28125"/><stop stop-opacity="1" stop-color="rgb(95.089722%, 45.118713%, 14.385986%)" offset="0.289062"/><stop stop-opacity="1" stop-color="rgb(95.06073%, 44.918823%, 14.427185%)" offset="0.296875"/><stop stop-opacity="1" stop-color="rgb(95.031738%, 44.718933%, 14.468384%)" offset="0.304687"/><stop stop-opacity="1" stop-color="rgb(95.002747%, 44.519043%, 14.511108%)" offset="0.3125"/><stop stop-opacity="1" stop-color="rgb(94.973755%, 44.319153%, 14.552307%)" offset="0.320313"/><stop stop-opacity="1" stop-color="rgb(94.944763%, 44.119263%, 14.593506%)" offset="0.328125"/><stop stop-opacity="1" stop-color="rgb(94.915771%, 43.920898%, 14.634705%)" offset="0.335938"/><stop stop-opacity="1" stop-color="rgb(94.88678%, 43.721008%, 14.675903%)" offset="0.34375"/><stop stop-opacity="1" stop-color="rgb(94.857788%, 43.521118%, 14.717102%)" offset="0.351563"/><stop stop-opacity="1" stop-color="rgb(94.828796%, 43.321228%, 14.758301%)" offset="0.359375"/><stop stop-opacity="1" stop-color="rgb(94.799805%, 43.121338%, 14.7995%)" offset="0.367188"/><stop stop-opacity="1" stop-color="rgb(94.770813%, 42.921448%, 14.842224%)" offset="0.375"/><stop stop-opacity="1" stop-color="rgb(94.741821%, 42.721558%, 14.883423%)" offset="0.382812"/><stop stop-opacity="1" stop-color="rgb(94.71283%, 42.523193%, 14.924622%)" offset="0.390625"/><stop stop-opacity="1" stop-color="rgb(94.683838%, 42.323303%, 14.96582%)" offset="0.397679"/><stop stop-opacity="1" stop-color="rgb(94.670105%, 42.224121%, 14.987183%)" offset="0.398438"/><stop stop-opacity="1" stop-color="rgb(94.654846%, 42.123413%, 15.007019%)" offset="0.40625"/><stop stop-opacity="1" stop-color="rgb(94.625854%, 41.923523%, 15.048218%)" offset="0.414062"/><stop stop-opacity="1" stop-color="rgb(94.596863%, 41.723633%, 15.089417%)" offset="0.421875"/><stop stop-opacity="1" stop-color="rgb(94.567871%, 41.523743%, 15.132141%)" offset="0.429688"/><stop stop-opacity="1" stop-color="rgb(94.538879%, 41.323853%, 15.17334%)" offset="0.4375"/><stop stop-opacity="1" stop-color="rgb(94.509888%, 41.125488%, 15.214539%)" offset="0.445312"/><stop stop-opacity="1" stop-color="rgb(94.480896%, 40.925598%, 15.255737%)" offset="0.453125"/><stop stop-opacity="1" stop-color="rgb(94.451904%, 40.725708%, 15.296936%)" offset="0.460937"/><stop stop-opacity="1" stop-color="rgb(94.424438%, 40.525818%, 15.338135%)" offset="0.46875"/><stop stop-opacity="1" stop-color="rgb(94.395447%, 40.325928%, 15.379333%)" offset="0.476562"/><stop stop-opacity="1" stop-color="rgb(94.366455%, 40.126038%, 15.420532%)" offset="0.484375"/><stop stop-opacity="1" stop-color="rgb(94.337463%, 39.926147%, 15.463257%)" offset="0.492187"/><stop stop-opacity="1" stop-color="rgb(94.308472%, 39.727783%, 15.504456%)" offset="0.5"/><stop stop-opacity="1" stop-color="rgb(94.27948%, 39.527893%, 15.545654%)" offset="0.507813"/><stop stop-opacity="1" stop-color="rgb(94.250488%, 39.328003%, 15.586853%)" offset="0.515625"/><stop stop-opacity="1" stop-color="rgb(94.221497%, 39.128113%, 15.628052%)" offset="0.523438"/><stop stop-opacity="1" stop-color="rgb(94.192505%, 38.928223%, 15.66925%)" offset="0.53125"/><stop stop-opacity="1" stop-color="rgb(94.163513%, 38.728333%, 15.710449%)" offset="0.539063"/><stop stop-opacity="1" stop-color="rgb(94.134521%, 38.528442%, 15.753174%)" offset="0.546875"/><stop stop-opacity="1" stop-color="rgb(94.10553%, 38.330078%, 15.794373%)" offset="0.554688"/><stop stop-opacity="1" stop-color="rgb(94.076538%, 38.130188%, 15.835571%)" offset="0.5625"/><stop stop-opacity="1" stop-color="rgb(94.047546%, 37.930298%, 15.87677%)" offset="0.570313"/><stop stop-opacity="1" stop-color="rgb(94.018555%, 37.730408%, 15.917969%)" offset="0.578125"/><stop stop-opacity="1" stop-color="rgb(93.989563%, 37.530518%, 15.959167%)" offset="0.585938"/><stop stop-opacity="1" stop-color="rgb(93.960571%, 37.330627%, 16.000366%)" offset="0.59375"/><stop stop-opacity="1" stop-color="rgb(93.93158%, 37.130737%, 16.041565%)" offset="0.601562"/><stop stop-opacity="1" stop-color="rgb(93.902588%, 36.932373%, 16.08429%)" offset="0.602321"/><stop stop-opacity="1" stop-color="rgb(93.888855%, 36.833191%, 16.105652%)" offset="0.609375"/><stop stop-opacity="1" stop-color="rgb(93.873596%, 36.732483%, 16.125488%)" offset="0.617188"/><stop stop-opacity="1" stop-color="rgb(93.844604%, 36.532593%, 16.166687%)" offset="0.625"/><stop stop-opacity="1" stop-color="rgb(93.815613%, 36.332703%, 16.207886%)" offset="0.632812"/><stop stop-opacity="1" stop-color="rgb(93.786621%, 36.132812%, 16.249084%)" offset="0.640625"/><stop stop-opacity="1" stop-color="rgb(93.757629%, 35.932922%, 16.290283%)" offset="0.648438"/><stop stop-opacity="1" stop-color="rgb(93.728638%, 35.733032%, 16.331482%)" offset="0.65625"/><stop stop-opacity="1" stop-color="rgb(93.699646%, 35.534668%, 16.372681%)" offset="0.664062"/><stop stop-opacity="1" stop-color="rgb(93.670654%, 35.334778%, 16.415405%)" offset="0.671875"/><stop stop-opacity="1" stop-color="rgb(93.641663%, 35.134888%, 16.456604%)" offset="0.679688"/><stop stop-opacity="1" stop-color="rgb(93.612671%, 34.934998%, 16.497803%)" offset="0.6875"/><stop stop-opacity="1" stop-color="rgb(93.583679%, 34.735107%, 16.539001%)" offset="0.695312"/><stop stop-opacity="1" stop-color="rgb(93.554688%, 34.535217%, 16.5802%)" offset="0.703125"/><stop stop-opacity="1" stop-color="rgb(93.527222%, 34.335327%, 16.621399%)" offset="0.710938"/><stop stop-opacity="1" stop-color="rgb(93.49823%, 34.136963%, 16.662598%)" offset="0.71875"/><stop stop-opacity="1" stop-color="rgb(93.469238%, 33.937073%, 16.705322%)" offset="0.726562"/><stop stop-opacity="1" stop-color="rgb(93.440247%, 33.737183%, 16.746521%)" offset="0.734375"/><stop stop-opacity="1" stop-color="rgb(93.411255%, 33.537292%, 16.78772%)" offset="0.742188"/><stop stop-opacity="1" stop-color="rgb(93.382263%, 33.337402%, 16.828918%)" offset="0.75"/><stop stop-opacity="1" stop-color="rgb(93.353271%, 33.137512%, 16.870117%)" offset="0.757812"/><stop stop-opacity="1" stop-color="rgb(93.32428%, 32.937622%, 16.911316%)" offset="0.765625"/><stop stop-opacity="1" stop-color="rgb(93.295288%, 32.739258%, 16.952515%)" offset="0.773437"/><stop stop-opacity="1" stop-color="rgb(93.266296%, 32.539368%, 16.993713%)" offset="0.78125"/><stop stop-opacity="1" stop-color="rgb(93.237305%, 32.339478%, 17.036438%)" offset="0.789062"/><stop stop-opacity="1" stop-color="rgb(93.208313%, 32.139587%, 17.077637%)" offset="0.796875"/><stop stop-opacity="1" stop-color="rgb(93.179321%, 31.939697%, 17.118835%)" offset="0.804687"/><stop stop-opacity="1" stop-color="rgb(93.15033%, 31.739807%, 17.160034%)" offset="0.8125"/><stop stop-opacity="1" stop-color="rgb(93.121338%, 31.539917%, 17.201233%)" offset="0.820313"/><stop stop-opacity="1" stop-color="rgb(93.092346%, 31.341553%, 17.242432%)" offset="0.828125"/><stop stop-opacity="1" stop-color="rgb(93.063354%, 31.141663%, 17.28363%)" offset="0.835938"/><stop stop-opacity="1" stop-color="rgb(93.034363%, 30.941772%, 17.326355%)" offset="0.84375"/><stop stop-opacity="1" stop-color="rgb(93.005371%, 30.741882%, 17.367554%)" offset="0.851563"/><stop stop-opacity="1" stop-color="rgb(92.976379%, 30.541992%, 17.408752%)" offset="0.859375"/><stop stop-opacity="1" stop-color="rgb(92.947388%, 30.342102%, 17.449951%)" offset="0.867188"/><stop stop-opacity="1" stop-color="rgb(92.918396%, 30.142212%, 17.49115%)" offset="0.875"/><stop stop-opacity="1" stop-color="rgb(92.889404%, 29.943848%, 17.532349%)" offset="0.882813"/><stop stop-opacity="1" stop-color="rgb(92.860413%, 29.743958%, 17.573547%)" offset="0.890625"/><stop stop-opacity="1" stop-color="rgb(92.831421%, 29.544067%, 17.614746%)" offset="0.898438"/><stop stop-opacity="1" stop-color="rgb(92.802429%, 29.344177%, 17.657471%)" offset="0.90625"/><stop stop-opacity="1" stop-color="rgb(92.773438%, 29.144287%, 17.698669%)" offset="0.914063"/><stop stop-opacity="1" stop-color="rgb(92.744446%, 28.944397%, 17.739868%)" offset="0.921875"/><stop stop-opacity="1" stop-color="rgb(92.715454%, 28.744507%, 17.781067%)" offset="0.929688"/><stop stop-opacity="1" stop-color="rgb(92.686462%, 28.546143%, 17.822266%)" offset="0.9375"/><stop stop-opacity="1" stop-color="rgb(92.657471%, 28.346252%, 17.863464%)" offset="0.945312"/><stop stop-opacity="1" stop-color="rgb(92.628479%, 28.146362%, 17.904663%)" offset="0.953125"/><stop stop-opacity="1" stop-color="rgb(92.601013%, 27.946472%, 17.947388%)" offset="0.960938"/><stop stop-opacity="1" stop-color="rgb(92.572021%, 27.746582%, 17.988586%)" offset="0.96875"/><stop stop-opacity="1" stop-color="rgb(92.54303%, 27.546692%, 18.029785%)" offset="0.976562"/><stop stop-opacity="1" stop-color="rgb(92.514038%, 27.346802%, 18.070984%)" offset="0.984375"/><stop stop-opacity="1" stop-color="rgb(92.485046%, 27.148438%, 18.112183%)" offset="0.992188"/><stop stop-opacity="1" stop-color="rgb(92.456055%, 26.948547%, 18.153381%)" offset="1"/></linearGradient><clipPath id="4ea4f83aac"><path d="M 88 166.835938 L 110 166.835938 L 110 181 L 88 181 Z M 88 166.835938 " clip-rule="nonzero"/></clipPath><clipPath id="741192c8af"><path d="M 96.449219 175.800781 C 96.574219 176.179688 96.730469 176.542969 96.921875 176.894531 C 97.109375 177.246094 97.328125 177.574219 97.578125 177.886719 C 97.824219 178.199219 98.097656 178.488281 98.398438 178.75 C 98.699219 179.015625 99.019531 179.25 99.359375 179.457031 C 99.699219 179.664062 100.058594 179.835938 100.429688 179.980469 C 100.800781 180.125 101.183594 180.234375 101.574219 180.308594 C 101.96875 180.386719 102.363281 180.425781 102.761719 180.429688 C 103.160156 180.4375 103.558594 180.40625 103.949219 180.34375 C 104.34375 180.277344 104.730469 180.179688 105.105469 180.046875 C 105.480469 179.914062 105.84375 179.746094 106.191406 179.550781 C 106.535156 179.355469 106.863281 179.128906 107.171875 178.871094 C 107.476562 178.617188 107.757812 178.335938 108.015625 178.03125 C 108.273438 177.726562 108.5 177.402344 108.699219 177.058594 C 108.898438 176.710938 109.066406 176.351562 109.199219 175.976562 C 109.335938 175.601562 109.4375 175.21875 109.503906 174.824219 C 109.570312 174.429688 109.601562 174.035156 109.597656 173.636719 C 109.59375 173.191406 109.546875 172.75 109.457031 172.316406 C 109.367188 171.878906 109.234375 171.457031 109.0625 171.042969 C 108.890625 170.632812 108.679688 170.242188 108.433594 169.875 C 108.183594 169.503906 107.902344 169.164062 107.585938 168.847656 C 107.273438 168.53125 106.929688 168.25 106.558594 168.003906 C 106.1875 167.753906 105.796875 167.542969 105.386719 167.371094 C 104.976562 167.199219 104.550781 167.070312 104.117188 166.980469 C 103.679688 166.890625 103.238281 166.84375 102.792969 166.839844 L 89.953125 166.839844 C 89.738281 166.855469 89.535156 166.917969 89.347656 167.027344 C 89.160156 167.136719 89.003906 167.28125 88.882812 167.464844 C 88.761719 167.644531 88.6875 167.84375 88.660156 168.058594 C 88.632812 168.273438 88.652344 168.484375 88.722656 168.691406 C 93.976562 168.847656 96.449219 175.800781 96.449219 175.800781 Z M 96.449219 175.800781 " clip-rule="nonzero"/></clipPath><linearGradient x1="2.166607" gradientTransform="matrix(20.950097, 0, 0, 13.593843, 88.647738, 166.838296)" y1="1.306214" x2="1.112746" gradientUnits="userSpaceOnUse" y2="2.247311" id="306c4b354e"><stop stop-opacity="1" stop-color="rgb(96.83075%, 57.122803%, 11.897278%)" offset="0"/><stop stop-opacity="1" stop-color="rgb(96.806335%, 56.96106%, 11.930847%)" offset="0.03125"/><stop stop-opacity="1" stop-color="rgb(96.759033%, 56.636047%, 11.999512%)" offset="0.0625"/><stop stop-opacity="1" stop-color="rgb(96.711731%, 56.312561%, 12.06665%)" offset="0.09375"/><stop stop-opacity="1" stop-color="rgb(96.664429%, 55.987549%, 12.133789%)" offset="0.125"/><stop stop-opacity="1" stop-color="rgb(96.618652%, 55.664062%, 12.200928%)" offset="0.15625"/><stop stop-opacity="1" stop-color="rgb(96.57135%, 55.33905%, 12.268066%)" offset="0.1875"/><stop stop-opacity="1" stop-color="rgb(96.524048%, 55.015564%, 12.335205%)" offset="0.21875"/><stop stop-opacity="1" stop-color="rgb(96.476746%, 54.690552%, 12.402344%)" offset="0.25"/><stop stop-opacity="1" stop-color="rgb(96.429443%, 54.367065%, 12.469482%)" offset="0.28125"/><stop stop-opacity="1" stop-color="rgb(96.383667%, 54.042053%, 12.536621%)" offset="0.3125"/><stop stop-opacity="1" stop-color="rgb(96.336365%, 53.718567%, 12.60376%)" offset="0.34375"/><stop stop-opacity="1" stop-color="rgb(96.289062%, 53.395081%, 12.670898%)" offset="0.375"/><stop stop-opacity="1" stop-color="rgb(96.24176%, 53.070068%, 12.738037%)" offset="0.40625"/><stop stop-opacity="1" stop-color="rgb(96.194458%, 52.746582%, 12.805176%)" offset="0.4375"/><stop stop-opacity="1" stop-color="rgb(96.148682%, 52.42157%, 12.872314%)" offset="0.46875"/><stop stop-opacity="1" stop-color="rgb(96.101379%, 52.098083%, 12.939453%)" offset="0.471593"/><stop stop-opacity="1" stop-color="rgb(96.078491%, 51.93634%, 12.973022%)" offset="0.5"/><stop stop-opacity="1" stop-color="rgb(96.054077%, 51.773071%, 13.006592%)" offset="0.528407"/><stop stop-opacity="1" stop-color="rgb(96.031189%, 51.611328%, 13.040161%)" offset="0.53125"/><stop stop-opacity="1" stop-color="rgb(96.006775%, 51.449585%, 13.07373%)" offset="0.5625"/><stop stop-opacity="1" stop-color="rgb(95.959473%, 51.124573%, 13.140869%)" offset="0.59375"/><stop stop-opacity="1" stop-color="rgb(95.913696%, 50.801086%, 13.208008%)" offset="0.625"/><stop stop-opacity="1" stop-color="rgb(95.866394%, 50.476074%, 13.276672%)" offset="0.65625"/><stop stop-opacity="1" stop-color="rgb(95.819092%, 50.152588%, 13.343811%)" offset="0.6875"/><stop stop-opacity="1" stop-color="rgb(95.77179%, 49.827576%, 13.41095%)" offset="0.71875"/><stop stop-opacity="1" stop-color="rgb(95.726013%, 49.504089%, 13.478088%)" offset="0.75"/><stop stop-opacity="1" stop-color="rgb(95.678711%, 49.180603%, 13.545227%)" offset="0.78125"/><stop stop-opacity="1" stop-color="rgb(95.631409%, 48.855591%, 13.612366%)" offset="0.8125"/><stop stop-opacity="1" stop-color="rgb(95.584106%, 48.532104%, 13.679504%)" offset="0.84375"/><stop stop-opacity="1" stop-color="rgb(95.536804%, 48.207092%, 13.746643%)" offset="0.875"/><stop stop-opacity="1" stop-color="rgb(95.491028%, 47.883606%, 13.813782%)" offset="0.90625"/><stop stop-opacity="1" stop-color="rgb(95.443726%, 47.558594%, 13.88092%)" offset="0.9375"/><stop stop-opacity="1" stop-color="rgb(95.396423%, 47.235107%, 13.948059%)" offset="0.96875"/><stop stop-opacity="1" stop-color="rgb(95.349121%, 46.910095%, 14.015198%)" offset="1"/></linearGradient><clipPath id="20cb617a6f"><path d="M 322 176 L 341.914062 176 L 341.914062 203 L 322 203 Z M 322 176 " clip-rule="nonzero"/></clipPath></defs><rect x="-37.5" width="450" fill="#ffffff" y="-37.499999" height="449.999989" fill-opacity="1"/><rect x="-37.5" width="450" fill="#ffffff" y="-37.499999" height="449.999989" fill-opacity="1"/><g clip-path="url(#3139886af9)"><g clip-path="url(#216b918614)"><path fill="url(#190353271e)" d="M 32.914062 166.835938 L 32.914062 208.085938 L 79.808594 208.085938 L 79.808594 166.835938 Z M 32.914062 166.835938 " fill-rule="nonzero"/></g></g><g clip-path="url(#ceca98e0b5)"><g clip-path="url(#90aff092b4)"><path fill="url(#0c2aa2d85f)" d="M 62.566406 166.835938 L 62.566406 208.085938 L 109.660156 208.085938 L 109.660156 166.835938 Z M 62.566406 166.835938 " fill-rule="nonzero"/></g></g><g clip-path="url(#4ea4f83aac)"><g clip-path="url(#741192c8af)"><path fill="url(#306c4b354e)" d="M 88.632812 166.839844 L 88.632812 180.4375 L 109.601562 180.4375 L 109.601562 166.839844 Z M 88.632812 166.839844 " fill-rule="nonzero"/></g></g><path fill="#000000" d="M 157.234375 176.109375 L 156.46875 176.109375 C 156.285156 176.109375 156.121094 176.167969 155.976562 176.28125 C 155.835938 176.394531 155.742188 176.542969 155.703125 176.722656 L 151.046875 197.738281 L 143.3125 176.882812 C 143.234375 176.652344 143.09375 176.464844 142.894531 176.324219 C 142.699219 176.179688 142.476562 176.109375 142.230469 176.109375 C 141.988281 176.109375 141.765625 176.179688 141.566406 176.324219 C 141.367188 176.464844 141.226562 176.652344 141.148438 176.882812 L 133.414062 197.738281 L 129.078125 177.035156 L 129.078125 176.730469 C 128.925781 176.425781 128.773438 176.117188 128.3125 176.117188 L 127.546875 176.117188 C 127.308594 176.15625 127.105469 176.257812 126.933594 176.425781 C 126.78125 176.578125 126.78125 176.730469 126.78125 177.035156 L 126.78125 177.496094 L 132.039062 201.90625 C 132.101562 202.148438 132.234375 202.339844 132.441406 202.484375 C 132.644531 202.628906 132.871094 202.691406 133.121094 202.671875 C 133.363281 202.667969 133.585938 202.597656 133.785156 202.457031 C 133.980469 202.316406 134.121094 202.132812 134.207031 201.90625 L 142.230469 180.28125 L 150.273438 201.90625 C 150.355469 202.136719 150.496094 202.320312 150.695312 202.460938 C 150.894531 202.601562 151.113281 202.671875 151.355469 202.671875 L 151.511719 202.671875 C 151.753906 202.671875 151.972656 202.601562 152.171875 202.460938 C 152.371094 202.320312 152.511719 202.136719 152.59375 201.90625 L 157.851562 177.5 L 157.851562 177.039062 C 157.875 176.816406 157.824219 176.613281 157.699219 176.425781 C 157.699219 176.261719 157.542969 176.109375 157.234375 176.109375 Z M 157.234375 176.109375 " fill-opacity="1" fill-rule="nonzero"/><path fill="#000000" d="M 186.3125 176.109375 L 185.546875 176.109375 C 185.332031 176.097656 185.148438 176.167969 184.992188 176.320312 C 184.839844 176.472656 184.769531 176.660156 184.78125 176.875 L 184.78125 188.304688 L 169.300781 188.304688 L 169.300781 176.882812 C 169.308594 176.667969 169.238281 176.480469 169.085938 176.328125 C 168.933594 176.175781 168.75 176.105469 168.535156 176.117188 L 167.765625 176.117188 C 167.550781 176.105469 167.367188 176.175781 167.214844 176.328125 C 167.0625 176.480469 166.992188 176.667969 167 176.882812 L 167 202.0625 C 166.992188 202.277344 167.0625 202.460938 167.214844 202.613281 C 167.367188 202.765625 167.550781 202.839844 167.765625 202.828125 L 168.535156 202.828125 C 168.75 202.839844 168.933594 202.765625 169.085938 202.613281 C 169.238281 202.460938 169.308594 202.277344 169.300781 202.0625 L 169.300781 190.628906 L 184.765625 190.628906 L 184.765625 202.0625 C 184.757812 202.277344 184.828125 202.460938 184.980469 202.613281 C 185.132812 202.765625 185.316406 202.839844 185.53125 202.828125 L 186.300781 202.828125 C 186.515625 202.839844 186.699219 202.765625 186.851562 202.613281 C 187.003906 202.460938 187.078125 202.277344 187.066406 202.0625 L 187.066406 176.882812 C 187.078125 176.667969 187.007812 176.484375 186.859375 176.328125 C 186.710938 176.175781 186.527344 176.101562 186.3125 176.109375 Z M 186.3125 176.109375 " fill-opacity="1" fill-rule="nonzero"/><path fill="#000000" d="M 201.160156 176.109375 L 200.394531 176.109375 C 200.179688 176.097656 199.996094 176.167969 199.84375 176.320312 C 199.691406 176.472656 199.617188 176.660156 199.628906 176.875 L 199.628906 202.0625 C 199.617188 202.277344 199.691406 202.460938 199.84375 202.613281 C 199.996094 202.765625 200.179688 202.839844 200.394531 202.828125 L 201.160156 202.828125 C 201.378906 202.839844 201.5625 202.765625 201.714844 202.613281 C 201.867188 202.460938 201.9375 202.277344 201.929688 202.0625 L 201.929688 176.882812 C 201.78125 176.417969 201.472656 176.109375 201.160156 176.109375 Z M 201.160156 176.109375 " fill-opacity="1" fill-rule="nonzero"/><path fill="#000000" d="M 229.777344 200.511719 L 214.464844 200.511719 L 229.625 177.808594 C 229.761719 177.660156 229.84375 177.488281 229.871094 177.289062 C 229.902344 177.09375 229.871094 176.902344 229.777344 176.726562 C 229.566406 176.371094 229.257812 176.167969 228.851562 176.113281 L 212.921875 176.113281 C 212.707031 176.101562 212.523438 176.171875 212.371094 176.328125 C 212.214844 176.480469 212.144531 176.664062 212.15625 176.878906 L 212.15625 177.644531 C 212.144531 177.859375 212.214844 178.042969 212.371094 178.195312 C 212.523438 178.347656 212.707031 178.421875 212.921875 178.410156 L 226.84375 178.410156 L 211.683594 201.121094 C 211.546875 201.265625 211.464844 201.4375 211.4375 201.636719 C 211.410156 201.835938 211.441406 202.023438 211.53125 202.203125 C 211.742188 202.554688 212.050781 202.761719 212.460938 202.8125 L 229.773438 202.8125 C 229.992188 202.824219 230.175781 202.753906 230.328125 202.601562 C 230.480469 202.449219 230.550781 202.265625 230.542969 202.046875 L 230.542969 201.285156 C 230.554688 201.066406 230.484375 200.882812 230.332031 200.730469 C 230.179688 200.574219 229.996094 200.503906 229.777344 200.511719 Z M 229.777344 200.511719 " fill-opacity="1" fill-rule="nonzero"/><path fill="#000000" d="M 255.296875 200.511719 L 241.988281 200.511719 L 241.988281 176.882812 C 242 176.667969 241.925781 176.480469 241.773438 176.328125 C 241.621094 176.175781 241.4375 176.105469 241.222656 176.117188 L 240.457031 176.117188 C 240.238281 176.105469 240.054688 176.175781 239.902344 176.328125 C 239.75 176.480469 239.679688 176.667969 239.691406 176.882812 L 239.691406 201.601562 C 239.6875 201.746094 239.710938 201.882812 239.765625 202.019531 C 239.820312 202.152344 239.898438 202.269531 240 202.375 C 240.101562 202.476562 240.21875 202.554688 240.355469 202.605469 C 240.488281 202.660156 240.628906 202.6875 240.773438 202.683594 L 255.15625 202.683594 C 255.371094 202.691406 255.558594 202.621094 255.710938 202.46875 C 255.863281 202.316406 255.933594 202.132812 255.921875 201.917969 L 255.921875 201.152344 C 256.070312 200.820312 255.757812 200.511719 255.296875 200.511719 Z M 255.296875 200.511719 " fill-opacity="1" fill-rule="nonzero"/><path fill="#000000" d="M 275.09375 176.878906 C 275.039062 176.785156 274.972656 176.699219 274.894531 176.625 C 274.816406 176.546875 274.730469 176.480469 274.632812 176.425781 C 274.539062 176.375 274.4375 176.332031 274.332031 176.304688 C 274.226562 176.277344 274.121094 176.261719 274.011719 176.261719 C 273.902344 176.261719 273.792969 176.277344 273.6875 176.304688 C 273.582031 176.332031 273.480469 176.375 273.386719 176.425781 C 273.292969 176.480469 273.207031 176.546875 273.128906 176.625 C 273.050781 176.699219 272.984375 176.785156 272.929688 176.878906 L 262.253906 201.289062 L 262.101562 201.75 C 261.949219 201.902344 262.101562 202.207031 262.101562 202.515625 C 262.257812 202.710938 262.460938 202.8125 262.714844 202.820312 L 263.480469 202.820312 C 263.832031 202.824219 264.085938 202.671875 264.246094 202.359375 L 274.007812 180.128906 L 283.753906 202.222656 L 283.753906 202.375 C 283.8125 202.53125 283.914062 202.652344 284.054688 202.738281 C 284.199219 202.824219 284.355469 202.855469 284.519531 202.832031 L 285.285156 202.832031 C 285.539062 202.828125 285.742188 202.726562 285.898438 202.527344 C 286.070312 202.273438 286.070312 202.019531 285.898438 201.761719 Z M 275.09375 176.878906 " fill-opacity="1" fill-rule="nonzero"/><path fill="#000000" d="M 310.199219 189.085938 C 311.101562 188.445312 311.8125 187.636719 312.332031 186.65625 C 312.847656 185.675781 313.117188 184.632812 313.136719 183.523438 C 313.105469 183.042969 313.03125 182.570312 312.910156 182.105469 C 312.789062 181.640625 312.621094 181.191406 312.414062 180.757812 C 312.203125 180.324219 311.953125 179.914062 311.664062 179.527344 C 311.375 179.144531 311.050781 178.789062 310.691406 178.46875 C 310.335938 178.148438 309.949219 177.863281 309.535156 177.617188 C 309.121094 177.367188 308.6875 177.164062 308.234375 177 C 307.78125 176.839844 307.316406 176.722656 306.839844 176.648438 C 306.363281 176.578125 305.882812 176.550781 305.402344 176.574219 L 296.585938 176.574219 C 296.441406 176.570312 296.304688 176.59375 296.167969 176.648438 C 296.035156 176.703125 295.914062 176.78125 295.8125 176.882812 C 295.710938 176.984375 295.632812 177.101562 295.578125 177.238281 C 295.523438 177.371094 295.5 177.511719 295.503906 177.65625 L 295.503906 201.136719 C 295.5 201.28125 295.523438 201.421875 295.578125 201.554688 C 295.632812 201.6875 295.710938 201.808594 295.8125 201.910156 C 295.914062 202.011719 296.035156 202.089844 296.167969 202.144531 C 296.304688 202.195312 296.441406 202.222656 296.585938 202.21875 L 306.949219 202.21875 C 307.433594 202.246094 307.914062 202.226562 308.394531 202.160156 C 308.871094 202.089844 309.339844 201.976562 309.796875 201.816406 C 310.253906 201.65625 310.6875 201.453125 311.105469 201.207031 C 311.519531 200.960938 311.910156 200.675781 312.269531 200.351562 C 312.628906 200.03125 312.953125 199.675781 313.242188 199.285156 C 313.53125 198.898438 313.777344 198.488281 313.984375 198.050781 C 314.191406 197.613281 314.355469 197.164062 314.472656 196.695312 C 314.589844 196.226562 314.660156 195.75 314.683594 195.265625 C 314.667969 194.585938 314.550781 193.921875 314.332031 193.277344 C 314.113281 192.628906 313.804688 192.03125 313.402344 191.480469 C 313 190.929688 312.527344 190.449219 311.980469 190.039062 C 311.433594 189.632812 310.839844 189.3125 310.199219 189.085938 Z M 310.964844 183.523438 C 310.9375 183.863281 310.875 184.195312 310.785156 184.523438 C 310.691406 184.851562 310.566406 185.167969 310.414062 185.46875 C 310.257812 185.773438 310.078125 186.058594 309.867188 186.328125 C 309.65625 186.59375 309.421875 186.839844 309.164062 187.0625 C 308.90625 187.285156 308.628906 187.480469 308.332031 187.648438 C 308.035156 187.8125 307.726562 187.953125 307.402344 188.058594 C 307.082031 188.167969 306.75 188.242188 306.410156 188.285156 C 306.074219 188.328125 305.734375 188.335938 305.394531 188.3125 L 297.660156 188.3125 L 297.660156 178.734375 L 305.394531 178.734375 C 305.734375 178.710938 306.074219 178.71875 306.414062 178.761719 C 306.753906 178.804688 307.082031 178.878906 307.40625 178.984375 C 307.730469 179.09375 308.042969 179.230469 308.339844 179.398438 C 308.636719 179.566406 308.914062 179.761719 309.171875 179.980469 C 309.433594 180.203125 309.667969 180.449219 309.878906 180.71875 C 310.089844 180.984375 310.273438 181.269531 310.425781 181.574219 C 310.582031 181.878906 310.703125 182.195312 310.796875 182.523438 C 310.890625 182.851562 310.949219 183.183594 310.976562 183.523438 Z M 306.957031 190.636719 C 307.296875 190.613281 307.632812 190.625 307.972656 190.667969 C 308.308594 190.707031 308.640625 190.785156 308.964844 190.890625 C 309.285156 191 309.597656 191.136719 309.894531 191.304688 C 310.1875 191.472656 310.464844 191.667969 310.722656 191.890625 C 310.980469 192.109375 311.214844 192.355469 311.425781 192.625 C 311.636719 192.890625 311.820312 193.175781 311.972656 193.480469 C 312.128906 193.785156 312.25 194.097656 312.34375 194.425781 C 312.4375 194.753906 312.496094 195.085938 312.523438 195.425781 C 312.496094 195.765625 312.4375 196.097656 312.34375 196.425781 C 312.25 196.753906 312.128906 197.070312 311.972656 197.371094 C 311.820312 197.675781 311.636719 197.960938 311.425781 198.226562 C 311.214844 198.496094 310.980469 198.742188 310.722656 198.964844 C 310.464844 199.183594 310.1875 199.378906 309.894531 199.546875 C 309.597656 199.714844 309.285156 199.851562 308.964844 199.960938 C 308.640625 200.066406 308.308594 200.144531 307.972656 200.1875 C 307.632812 200.230469 307.296875 200.238281 306.957031 200.214844 L 297.675781 200.214844 L 297.675781 190.636719 Z M 306.957031 190.636719 " fill-opacity="1" fill-rule="nonzero"/><g clip-path="url(#20cb617a6f)"><path fill="#000000" d="M 332.9375 188.3125 C 329.226562 186.921875 325.667969 185.53125 325.667969 183.371094 C 325.667969 180.589844 328.609375 178.425781 332.320312 178.425781 C 336.03125 178.425781 338.96875 180.589844 338.96875 183.371094 L 338.96875 183.675781 C 338.960938 183.890625 339.03125 184.074219 339.183594 184.226562 C 339.335938 184.382812 339.519531 184.453125 339.738281 184.441406 L 340.503906 184.441406 C 340.71875 184.453125 340.902344 184.382812 341.054688 184.226562 C 341.207031 184.074219 341.28125 183.890625 341.269531 183.675781 L 341.269531 183.371094 C 341.269531 179.355469 337.25 176.109375 332.453125 176.109375 C 327.503906 176.109375 323.636719 179.355469 323.636719 183.371094 C 323.636719 187.230469 328.121094 188.933594 332.609375 190.476562 C 336.320312 191.867188 339.878906 193.257812 339.878906 195.574219 C 339.878906 198.199219 336.472656 200.519531 332.453125 200.519531 C 328.433594 200.519531 325.027344 198.355469 325.027344 195.574219 L 325.027344 195.269531 C 325.039062 195.054688 324.96875 194.867188 324.816406 194.714844 C 324.664062 194.5625 324.480469 194.492188 324.261719 194.503906 L 323.496094 194.503906 C 323.28125 194.492188 323.097656 194.5625 322.945312 194.714844 C 322.789062 194.867188 322.71875 195.054688 322.730469 195.269531 L 322.730469 195.574219 C 322.730469 199.589844 327.0625 202.835938 332.320312 202.835938 C 337.578125 202.835938 341.910156 199.589844 341.910156 195.574219 C 342.0625 191.710938 337.425781 190.011719 332.9375 188.3125 Z M 332.9375 188.3125 " fill-opacity="1" fill-rule="nonzero"/></g></svg>