<svg xmlns="http://www.w3.org/2000/svg" xmlns:xlink="http://www.w3.org/1999/xlink" width="201.651" height="26.95" viewBox="0 0 201.651 26.95">
  <defs>
    <linearGradient id="linear-gradient" x1="1.776" y1="-0.372" x2="-0.701" y2="1.259" gradientUnits="objectBoundingBox">
      <stop offset="0" stop-color="#f7931e"/>
      <stop offset="0.999" stop-color="#e3083b"/>
    </linearGradient>
    <linearGradient id="linear-gradient-2" x1="1.298" y1="-0.06" x2="-1.171" y2="1.572" xlink:href="#linear-gradient"/>
    <linearGradient id="linear-gradient-3" x1="2.215" y1="1.263" x2="-3.327" y2="6.212" xlink:href="#linear-gradient"/>
  </defs>
  <g id="Group_2916" data-name="Group 2916" transform="translate(-151 -22)">
    <g id="Group_2799" data-name="Group 2799" transform="translate(10575 12962)">
      <g id="Group_23" data-name="Group 23" transform="translate(-10424 -12940)">
        <path id="Path_43" data-name="Path 43" d="M21.082,20.425,11.8,3.669A6.708,6.708,0,0,0,6.042.237H.39a.453.453,0,0,0-.4.707L12.6,23.755a6.469,6.469,0,0,0,5.753,3.432h6.46l-.908-1.615.908,1.615H29.46a1,1,0,0,0,.908-1.514A10.715,10.715,0,0,1,21.082,20.425Z" transform="translate(0.093 -0.237)" fill="url(#linear-gradient)"/>
        <path id="Path_44" data-name="Path 44" d="M43.859,20.425,34.573,3.669A6.586,6.586,0,0,0,28.819.237H23.167a.453.453,0,0,0-.4.707L35.38,23.755a6.469,6.469,0,0,0,5.753,3.432h6.46l-.807-1.615.908,1.615h4.643a1,1,0,0,0,.908-1.514A11.1,11.1,0,0,1,43.859,20.425Z" transform="translate(-3.304 -0.237)" fill="url(#linear-gradient-2)"/>
        <path id="Path_45" data-name="Path 45" d="M47.744,6.092h0a4.4,4.4,0,0,0,8.58-1.413A4.481,4.481,0,0,0,51.883.237H43.505A.921.921,0,0,0,42.7,1.448C46.129,1.549,47.744,6.092,47.744,6.092Z" transform="translate(-6.281 -0.237)" fill="url(#linear-gradient-3)"/>
      </g>
      <g id="Group_24" data-name="Group 24" transform="translate(-10362.754 -12933.943)">
        <path id="Path_46" data-name="Path 46" d="M91.774,7.355h-.5a.515.515,0,0,0-.5.4L87.737,21.486,82.69,7.86a.747.747,0,0,0-1.413,0L76.23,21.486,73.4,7.961v-.2c-.1-.2-.2-.4-.5-.4h-.5a.765.765,0,0,0-.4.2c-.1.1-.1.2-.1.4v.3l3.432,15.948a.672.672,0,0,0,.707.5h0a.759.759,0,0,0,.707-.5L81.983,10.08l5.249,14.131a.759.759,0,0,0,.707.5h.1a.759.759,0,0,0,.707-.5L92.178,8.263v-.3a.607.607,0,0,0-.1-.4C92.077,7.456,91.976,7.355,91.774,7.355Z" transform="translate(-71.89 -7.355)"/>
        <path id="Path_47" data-name="Path 47" d="M115.351,7.355h-.5a.477.477,0,0,0-.5.5v7.469H104.248V7.86a.477.477,0,0,0-.5-.5h-.5a.477.477,0,0,0-.5.5V24.312a.477.477,0,0,0,.5.5h.5a.477.477,0,0,0,.5-.5V16.843h10.094v7.469a.477.477,0,0,0,.5.5h.5a.477.477,0,0,0,.5-.5V7.86A.477.477,0,0,0,115.351,7.355Z" transform="translate(-76.49 -7.355)"/>
        <path id="Path_48" data-name="Path 48" d="M128.774,7.355h-.5a.477.477,0,0,0-.5.5V24.312a.477.477,0,0,0,.5.5h.5a.477.477,0,0,0,.5-.5V7.86C129.178,7.557,128.976,7.355,128.774,7.355Z" transform="translate(-80.223 -7.355)"/>
        <path id="Path_49" data-name="Path 49" d="M148.8,23.3h-9.993L148.7,8.465a.622.622,0,0,0,.1-.707.83.83,0,0,0-.606-.4H137.8a.477.477,0,0,0-.5.5v.5a.477.477,0,0,0,.5.5h9.084l-9.892,14.838a.622.622,0,0,0-.1.707.83.83,0,0,0,.606.4h11.3a.477.477,0,0,0,.5-.5v-.5A.477.477,0,0,0,148.8,23.3Z" transform="translate(-81.574 -7.355)"/>
        <path id="Path_50" data-name="Path 50" d="M168.684,23.3H160V7.86a.477.477,0,0,0-.5-.5h-.5a.477.477,0,0,0-.5.5V24.01a.69.69,0,0,0,.707.707h9.387a.477.477,0,0,0,.5-.5v-.5C169.189,23.5,168.987,23.3,168.684,23.3Z" transform="translate(-84.806 -7.355)"/>
        <path id="Path_51" data-name="Path 51" d="M184.162,7.877a.82.82,0,0,0-1.413,0l-6.965,15.948-.1.3c-.1.1,0,.3,0,.5a.525.525,0,0,0,.4.2h.5a.555.555,0,0,0,.5-.3L183.455,10l6.359,14.434v.1a.466.466,0,0,0,.5.3h.5a.524.524,0,0,0,.4-.2.451.451,0,0,0,0-.5Z" transform="translate(-87.364 -7.373)"/>
        <path id="Path_52" data-name="Path 52" d="M210.9,15.887a4.549,4.549,0,0,0,1.918-3.634,4.844,4.844,0,0,0-5.047-4.542h-5.753a.69.69,0,0,0-.707.707V23.76a.69.69,0,0,0,.707.707h6.763a4.78,4.78,0,0,0,5.047-4.542A4.4,4.4,0,0,0,210.9,15.887Zm.5-3.634a3.41,3.41,0,0,1-3.634,3.129h-5.047V9.124h5.047A3.41,3.41,0,0,1,211.409,12.253ZM208.784,16.9a3.411,3.411,0,0,1,3.634,3.129,3.411,3.411,0,0,1-3.634,3.129h-6.056V16.9h6.056Z" transform="translate(-91.193 -7.408)"/>
        <path id="Path_53" data-name="Path 53" d="M228.856,15.329c-2.422-.908-4.744-1.817-4.744-3.23,0-1.817,1.918-3.23,4.34-3.23s4.34,1.413,4.34,3.23v.2a.477.477,0,0,0,.5.5h.5a.477.477,0,0,0,.5-.5v-.2c0-2.624-2.624-4.744-5.753-4.744-3.23,0-5.753,2.12-5.753,4.744,0,2.523,2.927,3.634,5.854,4.643,2.422.908,4.744,1.817,4.744,3.331,0,1.716-2.221,3.23-4.845,3.23s-4.845-1.413-4.845-3.23v-.2a.477.477,0,0,0-.5-.5h-.5a.477.477,0,0,0-.5.5v.2c0,2.624,2.826,4.744,6.258,4.744s6.258-2.12,6.258-4.744C234.811,17.55,231.783,16.439,228.856,15.329Z" transform="translate(-94.308 -7.355)"/>
      </g>
    </g>
  </g>
</svg>
