<svg xmlns="http://www.w3.org/2000/svg" xmlns:xlink="http://www.w3.org/1999/xlink" width="500" zoomAndPan="magnify" viewBox="0 0 375 374.999991" height="500" preserveAspectRatio="xMidYMid meet" version="1.0"><defs><clipPath id="a557b84c4d"><path d="M 170 183 L 211 183 L 211 233.199219 L 170 233.199219 Z M 170 183 " clip-rule="nonzero"/></clipPath><clipPath id="0a066d9161"><path d="M 342 141.699219 L 373 141.699219 L 373 176 L 342 176 Z M 342 141.699219 " clip-rule="nonzero"/></clipPath></defs><rect x="-37.5" width="450" fill="#ffffff" y="-37.499999" height="449.999989" fill-opacity="1"/><rect x="-37.5" width="450" fill="#ffffff" y="-37.499999" height="449.999989" fill-opacity="1"/><path fill="#1b171b" d="M 2.011719 211.761719 C 4.070312 213.046875 8.347656 214.542969 11.671875 214.542969 C 15.078125 214.542969 16.46875 213.339844 16.46875 211.488281 C 16.46875 209.632812 15.367188 208.730469 11.152344 207.296875 C 3.695312 204.75 0.828125 200.644531 0.910156 196.304688 C 0.910156 189.503906 6.664062 184.34375 15.574219 184.34375 C 19.769531 184.34375 23.53125 185.3125 25.75 186.429688 L 23.757812 194.28125 C 22.136719 193.378906 19.042969 192.199219 15.949219 192.199219 C 13.226562 192.199219 11.671875 193.3125 11.671875 195.1875 C 11.671875 196.914062 13.082031 197.800781 17.507812 199.378906 C 24.359375 201.78125 27.246094 205.277344 27.308594 210.667969 C 27.308594 217.46875 22.011719 222.480469 11.671875 222.480469 C 6.957031 222.480469 2.761719 221.425781 0.0195312 219.933594 Z M 2.011719 211.761719 " fill-opacity="1" fill-rule="nonzero"/><path fill="#1b171b" d="M 66.746094 203.023438 C 66.746094 216.394531 57.378906 222.542969 47.722656 222.542969 C 37.171875 222.542969 29.074219 215.511719 29.074219 203.695312 C 29.074219 191.882812 36.738281 184.34375 48.324219 184.34375 C 59.394531 184.324219 66.746094 192.03125 66.746094 203.023438 Z M 40.660156 203.378906 C 40.660156 209.65625 43.238281 214.371094 48.035156 214.371094 C 52.394531 214.371094 55.179688 209.949219 55.179688 203.378906 C 55.179688 197.925781 53.121094 192.386719 48.035156 192.386719 C 42.65625 192.386719 40.660156 198.011719 40.660156 203.378906 Z M 40.660156 203.378906 " fill-opacity="1" fill-rule="nonzero"/><path fill="#1b171b" d="M 70.761719 196.808594 C 70.761719 192.261719 70.613281 188.363281 70.46875 185.140625 L 80.210938 185.140625 L 80.730469 190.15625 L 80.957031 190.15625 C 82.433594 187.839844 86.109375 184.320312 92.089844 184.320312 C 99.464844 184.320312 105.007812 189.25 105.007812 200.007812 L 105.007812 221.699219 L 93.792969 221.699219 L 93.792969 201.421875 C 93.792969 196.703125 92.171875 193.503906 88.125 193.503906 C 85.027344 193.503906 83.179688 195.671875 82.453125 197.757812 C 82.164062 198.429688 81.996094 199.546875 81.996094 200.597656 L 81.996094 221.679688 L 70.800781 221.679688 L 70.800781 196.808594 Z M 70.761719 196.808594 " fill-opacity="1" fill-rule="nonzero"/><path fill="#1b171b" d="M 131.503906 221.699219 L 130.839844 218.035156 L 130.632812 218.035156 C 128.285156 220.964844 124.589844 222.523438 120.332031 222.523438 C 113.019531 222.523438 108.679688 217.128906 108.679688 211.296875 C 108.679688 201.800781 117.09375 197.230469 129.84375 197.316406 L 129.84375 196.789062 C 129.84375 194.851562 128.804688 192.070312 123.28125 192.070312 C 119.605469 192.070312 115.699219 193.335938 113.332031 194.828125 L 111.253906 187.5 C 113.769531 186.070312 118.710938 184.277344 125.273438 184.277344 C 137.300781 184.277344 141.121094 191.460938 141.121094 200.050781 L 141.121094 212.769531 C 141.121094 216.289062 141.265625 219.636719 141.640625 221.65625 L 131.503906 221.65625 Z M 130.195312 204.433594 C 124.296875 204.347656 119.730469 205.78125 119.730469 210.179688 C 119.730469 213.109375 121.640625 214.519531 124.152344 214.519531 C 126.769531 214.539062 129.117188 212.855469 129.96875 210.328125 C 130.113281 209.695312 130.195312 209.042969 130.195312 208.390625 Z M 130.195312 204.433594 " fill-opacity="1" fill-rule="nonzero"/><path fill="#1b171b" d="M 147.023438 197.1875 C 147.023438 191.820312 146.878906 188.300781 146.734375 185.164062 L 156.390625 185.164062 L 156.765625 191.882812 L 157.054688 191.882812 C 158.90625 186.574219 163.328125 184.34375 166.796875 184.34375 C 167.585938 184.320312 168.375 184.363281 169.164062 184.492188 L 169.164062 195.1875 C 168.167969 195 167.152344 194.894531 166.152344 194.894531 C 162.019531 194.894531 159.214844 197.148438 158.46875 200.664062 C 158.324219 201.503906 158.261719 202.347656 158.261719 203.210938 L 158.261719 221.742188 L 147.046875 221.742188 Z M 147.023438 197.1875 " fill-opacity="1" fill-rule="nonzero"/><path fill="#1b171b" d="M 243.101562 211.824219 C 243.101562 215.550781 243.1875 218.859375 243.394531 221.699219 L 237.640625 221.699219 L 237.265625 215.78125 L 237.121094 215.78125 C 235.417969 218.6875 231.660156 222.523438 225.324219 222.523438 C 219.71875 222.523438 213.007812 219.382812 213.007812 206.664062 L 213.007812 185.523438 L 219.488281 185.523438 L 219.488281 205.546875 C 219.488281 212.414062 221.546875 217.066406 227.445312 217.066406 C 231.785156 217.066406 234.816406 213.992188 236 211.085938 C 236.394531 210.011719 236.582031 208.875 236.582031 207.71875 L 236.582031 185.523438 L 243.0625 185.523438 L 243.0625 211.824219 Z M 243.101562 211.824219 " fill-opacity="1" fill-rule="nonzero"/><path fill="#1b171b" d="M 250.636719 221.699219 C 250.785156 219.234375 250.929688 215.570312 250.929688 212.351562 L 250.929688 168.609375 L 257.347656 168.609375 L 257.347656 191.355469 L 257.492188 191.355469 C 259.777344 187.3125 263.910156 184.699219 269.664062 184.699219 C 278.511719 184.699219 284.78125 192.175781 284.699219 203.167969 C 284.699219 216.097656 276.660156 222.542969 268.707031 222.542969 C 263.535156 222.542969 259.421875 220.519531 256.765625 215.742188 L 256.535156 215.742188 L 256.246094 221.722656 Z M 257.347656 207.191406 C 257.367188 207.992188 257.472656 208.792969 257.636719 209.589844 C 258.882812 214.140625 262.644531 217.277344 267.355469 217.277344 C 274.148438 217.277344 278.199219 211.675781 278.199219 203.378906 C 278.199219 196.132812 274.523438 189.921875 267.585938 189.921875 C 263.164062 189.921875 259.027344 192.976562 257.699219 197.988281 C 257.554688 198.746094 257.324219 199.628906 257.324219 200.683594 L 257.324219 207.191406 Z M 257.347656 207.191406 " fill-opacity="1" fill-rule="nonzero"/><path fill="#1b171b" d="M 293.546875 204.808594 C 293.695312 213.695312 299.300781 217.359375 305.78125 217.359375 C 310.4375 217.359375 313.238281 216.539062 315.667969 215.488281 L 316.769531 220.203125 C 314.484375 221.257812 310.578125 222.4375 304.890625 222.4375 C 293.902344 222.4375 287.339844 215.109375 287.339844 204.199219 C 287.339844 193.292969 293.675781 184.679688 304.078125 184.679688 C 315.730469 184.679688 318.824219 195.082031 318.824219 201.734375 C 318.824219 202.769531 318.742188 203.777344 318.617188 204.789062 Z M 312.574219 200.09375 C 312.65625 195.902344 310.890625 189.394531 303.582031 189.394531 C 297.015625 189.394531 294.152344 195.523438 293.613281 200.09375 Z M 312.574219 200.09375 " fill-opacity="1" fill-rule="nonzero"/><g clip-path="url(#a557b84c4d)"><path fill="#1b171b" d="M 205.320312 192.027344 C 199.339844 183.097656 187.355469 180.78125 178.550781 186.847656 C 169.746094 192.910156 167.460938 205.0625 173.441406 213.992188 C 178.65625 221.761719 188.5625 224.667969 197.054688 220.917969 L 204.511719 233.195312 L 210.429688 229.113281 L 202.976562 216.835938 C 209.539062 210.222656 210.535156 199.796875 205.320312 192.027344 Z M 196.972656 214.328125 C 190.804688 218.582031 182.414062 216.960938 178.21875 210.707031 C 174.023438 204.453125 175.621094 195.945312 181.792969 191.691406 C 187.960938 187.4375 196.351562 189.058594 200.546875 195.3125 C 204.71875 201.566406 203.121094 210.074219 196.972656 214.328125 Z M 196.972656 214.328125 " fill-opacity="1" fill-rule="nonzero"/></g><path fill="#4e9bcd" d="M 363.183594 221.847656 L 358.613281 221.847656 C 358.613281 184.53125 328.25 154.1875 290.929688 154.1875 L 290.929688 149.554688 C 330.765625 149.554688 363.183594 181.984375 363.183594 221.847656 Z M 363.183594 221.847656 " fill-opacity="1" fill-rule="nonzero"/><path fill="#4e9bcd" d="M 366.339844 196.976562 C 360.859375 173.558594 342.144531 154.019531 318.695312 147.195312 L 319.734375 143.488281 C 344.492188 150.691406 364.242188 171.328125 370.039062 196.09375 Z M 366.339844 196.976562 " fill-opacity="1" fill-rule="nonzero"/><g clip-path="url(#0a066d9161)"><path fill="#4e9bcd" d="M 369.855469 175.011719 C 364.203125 162.523438 354.566406 151.617188 342.726562 144.332031 L 344.308594 141.699219 C 356.664062 149.300781 366.71875 160.691406 372.617188 173.75 Z M 369.855469 175.011719 " fill-opacity="1" fill-rule="nonzero"/></g></svg>